<svg width="800" height="800" viewBox="0 0 800 800" xmlns="http://www.w3.org/2000/svg">
  <defs>
    <linearGradient id="g1" x1="0" y1="0" x2="1" y2="1">
      <stop offset="0%" stop-color="#4fd1c5" stop-opacity="0.25"/>
      <stop offset="100%" stop-color="#f6ad55" stop-opacity="0.05"/>
    </linearGradient>
  </defs>
  <rect width="800" height="800" fill="none"/>
  <g stroke="url(#g1)" stroke-width="1" fill="none">
    <path d="M0 120 C180 160, 320 80, 520 140 C640 176, 740 164, 800 120"/>
    <path d="M0 220 C180 260, 320 180, 520 240 C640 276, 740 264, 800 220"/>
    <path d="M0 320 C180 360, 320 280, 520 340 C640 376, 740 364, 800 320"/>
    <path d="M0 420 C180 460, 320 380, 520 440 C640 476, 740 464, 800 420"/>
    <path d="M0 520 C180 560, 320 480, 520 540 C640 576, 740 564, 800 520"/>
    <path d="M0 620 C180 660, 320 580, 520 640 C640 676, 740 664, 800 620"/>
  </g>
</svg>
